<svg width="256" height="256" viewBox="0 0 256 256" fill="none" xmlns="http://www.w3.org/2000/svg">
<path d="M11.6281 5.99987C45.9222 46.8714 83.1402 68.5725 104.235 69.5197C126.494 72.8412 141.482 72.0778 163.74 66.7577C194.927 59.6607 211.584 49.0954 236.539 20.9647C239.143 18.0284 242.04 15.01 245.858 14.1C246.697 13.8999 247.491 13.8203 248.285 13.8531C250.948 13.9627 252.997 16.1202 254.094 18.5496C255.46 21.5763 256.213 24.1892 255.947 27.5778C255.716 30.5187 254.279 33.1883 252.658 35.6534C247.228 43.9133 242.898 52.1414 234 73.3865C202.711 169.18 163.123 212.027 101.003 256C108.867 230.828 119.329 203.273 161.694 172.216C164.698 170.014 167.585 167.627 170.122 164.901C191.549 141.875 202.639 119.022 219.941 74.5117C220.229 73.7713 220.48 72.9975 220.613 72.2144C221.027 69.773 220.574 69.017 219.076 69.2278C218.26 69.3426 217.514 69.7504 216.822 70.1984C200.568 80.7254 190.746 86.4526 170.193 93.2726C141.413 101.032 125.564 99.2315 97.4245 93.2726C59.0042 83.565 39.8969 74.0613 14.2607 43.0048C12.1489 40.3319 12.1201 38.7355 12.8268 35.8237C13.4988 34.5444 14.1528 33.975 15.2306 33.9172C16.4856 33.8499 17.6208 34.6505 18.5216 35.5269C57.6877 73.6282 75.0694 78.4407 104.235 81.6723C63.2244 73.2498 39.9442 56.2216 5.29909 14.2804C-0.342339 6.99037 -0.804527 4.27007 0.811773 1.69143C1.34466 0.841263 2.14937 0.0922372 3.1494 0.0103718C3.77358 -0.0407255 4.43705 0.0963356 5.22161 0.435803C7.8418 1.56952 9.79299 3.81282 11.6281 5.99987Z" fill="#F3858B"/>
</svg>
